<svg width="27" height="19" viewBox="0 0 27 19" fill="none" xmlns="http://www.w3.org/2000/svg">
<path d="M26.015 16V2.5C26.015 1.255 25.01 0.25 23.765 0.25H2.75C1.505 0.25 0.5 1.255 0.5 2.5V16C0.5 17.245 1.505 18.25 2.75 18.25H23.765C25.01 18.25 26.015 17.245 26.015 16ZM24.05 2.335C24.545 2.83 24.275 3.34 24.005 3.595L17.915 9.175L23.765 15.265C23.945 15.475 24.065 15.805 23.855 16.03C23.66 16.27 23.21 16.255 23.015 16.105L16.46 10.51L13.25 13.435L10.055 10.51L3.5 16.105C3.305 16.255 2.855 16.27 2.66 16.03C2.45 15.805 2.57 15.475 2.75 15.265L8.6 9.175L2.51 3.595C2.24 3.34 1.97 2.83 2.465 2.335C2.96 1.84 3.47 2.08 3.89 2.44L13.25 10L22.625 2.44C23.045 2.08 23.555 1.84 24.05 2.335Z" fill="#FF1F1F"/>
</svg>
