<svg width="188" height="133" viewBox="0 0 188 133" fill="none" xmlns="http://www.w3.org/2000/svg">
<g clip-path="url(#clip0_726_113)">
<path d="M19.4448 129.646L22.565 129.646L24.0495 117.633L19.4441 117.633L19.4448 129.646Z" fill="#FFB6B6"/>
<path d="M19.3349 132.895L28.9305 132.895V132.774C28.9304 131.785 28.5369 130.837 27.8365 130.138C27.1361 129.439 26.1861 129.046 25.1956 129.046H25.1954L23.4426 127.719L20.1724 129.046L19.3347 129.046L19.3349 132.895Z" fill="#2F2E41"/>
<path d="M24.4838 115.112L26.9403 117.032L35.5312 108.489L31.9055 105.654L24.4838 115.112Z" fill="#FFB6B6"/>
<path d="M22.3898 117.602L29.9438 123.508L30.0187 123.413C30.6295 122.634 30.9055 121.646 30.786 120.664C30.6666 119.683 30.1614 118.789 29.3817 118.179L29.3815 118.179L28.8217 116.055L25.4271 115.087L24.7677 114.572L22.3898 117.602Z" fill="#2F2E41"/>
<path d="M39.1746 60.375C39.1746 60.375 43.316 64.6617 41.4754 74.6129L43.0206 91.6517L43.4194 92.4404C43.6571 92.9105 43.7401 93.4434 43.6565 93.9632C43.573 94.4831 43.3272 94.9634 42.9543 95.3356L42.6257 96.3525L42.319 98.3427L30.8918 115.489L26.5203 110.897L33.576 94.8215L31.6587 90.6879L27.2105 76.2969L24.1428 102.629L24.7564 125.288H18.8849L15.2465 100.027L11.4119 64.5086L13.4065 60.375H39.1746Z" fill="#2F2E41"/>
<path d="M12.3681 67.7409L12.3263 67.6823C10.0914 64.5593 13.4527 57.0549 13.9596 55.967C13.3576 55.7721 12.842 55.3748 12.5005 54.843C12.1589 54.3111 12.0127 53.6775 12.0867 53.0502L12.3052 51.196L12.533 49.3772L10.901 47.7483L10.8964 47.7077L9.95726 39.5055L8.59174 34.0577C8.07723 31.9982 8.12108 29.8392 8.71879 27.8022C9.3165 25.7652 10.4465 23.9237 11.9929 22.4667L15.1493 21.9664L18.9853 18.2773H25.1713L27.2924 20.3C31.2519 20.9931 31.9321 20.7668 35.3333 24.8405L33.7878 37.5056L33.4023 39.248L33.4034 41.6112L34.3836 42.6984C34.7366 43.0901 34.9932 43.5586 35.1328 44.0667C35.2724 44.5748 35.2912 45.1084 35.1877 45.625L35.0588 46.2683C36.0697 46.7007 37.0343 54.3852 37.2647 55.4585L37.609 57.0619C37.9035 57.4498 39.8476 60.037 39.8476 60.7443C39.8476 60.8505 39.769 60.9532 39.6005 61.067C38.2757 61.9624 32.9938 68.3142 29.7529 67.0198C26.3007 65.6421 12.5777 67.7089 12.4394 67.7299L12.3681 67.7409Z" fill="#3F3D56"/>
<path d="M11.537 53.0135C11.537 53.0135 13.1256 44.0526 11.5252 40.6826L5.17639 41.1352L6.14259 53.919L11.6926 68.1129C11.6079 68.5502 11.6406 69.0021 11.7875 69.4227C11.9343 69.8433 12.19 70.2177 12.5287 70.5077C12.8673 70.7978 13.2769 70.9933 13.7157 71.0743C14.1545 71.1553 14.6069 71.119 15.0271 70.9691C15.4474 70.8192 15.8203 70.5609 16.1082 70.2206C16.3961 69.8803 16.5886 69.47 16.6663 69.0313C16.7439 68.5927 16.7039 68.1414 16.5503 67.7232C16.3967 67.305 16.135 66.9348 15.7917 66.6502L11.537 53.0135Z" fill="#FFB6B6"/>
<path d="M5.17646 35.9297L5.56938 31.6588C5.71727 30.0514 6.18209 28.4891 6.93712 27.0617C7.69214 25.6342 8.72247 24.3699 9.96883 23.3413C10.7432 22.707 11.68 22.3015 12.6732 22.1706C13.6664 22.0398 14.6764 22.1888 15.5892 22.6008C16.8228 23.1677 17.7947 24.1809 18.3084 25.4357C18.8222 26.6904 18.8394 28.0931 18.3566 29.36C16.8892 33.2011 17.419 37.2632 14.5578 37.7585L14.8687 39.2346L12.0554 48.3982L4.04272 47.4717L5.17646 35.9297Z" fill="#3F3D56"/>
<path d="M47.4362 48.7662C47.4362 48.7662 42.7858 40.9389 39.3707 39.4258L34.8533 43.9013L43.9382 52.9639L57.4195 60.112C57.641 60.4986 57.9611 60.8199 58.3472 61.0432C58.7333 61.2665 59.1718 61.3838 59.618 61.3833C60.0643 61.3828 60.5025 61.2644 60.8881 61.0402C61.2737 60.8161 61.593 60.494 61.8136 60.1068C62.0342 59.7197 62.1482 59.2811 62.1441 58.8357C62.14 58.3903 62.0179 57.954 61.7902 57.5709C61.5625 57.1878 61.2373 56.8717 60.8476 56.6547C60.4579 56.4376 60.0176 56.3273 59.5714 56.335L47.4362 48.7662Z" fill="#FFB6B6"/>
<path d="M31.4524 39.9553L28.9599 36.4618C28.0218 35.1469 27.3534 33.6599 26.9932 32.0864C26.6329 30.5128 26.588 28.8836 26.8608 27.2926C27.0335 26.3076 27.4787 25.3905 28.1461 24.6448C28.8136 23.8992 29.6767 23.3547 30.6379 23.0729C31.9434 22.6997 33.3423 22.8353 34.5515 23.4521C35.7608 24.069 36.6903 25.1211 37.152 26.3959C38.5492 30.263 43.6456 36.6186 41.8001 38.8564L43.0002 39.7732L44.8139 44.9303L38.1341 49.4433L31.4524 39.9553Z" fill="#3F3D56"/>
<path d="M21.6609 16.4948C25.4551 16.4948 28.5309 13.4248 28.5309 9.6378C28.5309 5.85076 25.4551 2.78076 21.6609 2.78076C17.8667 2.78076 14.7909 5.85076 14.7909 9.6378C14.7909 13.4248 17.8667 16.4948 21.6609 16.4948Z" fill="#FFB6B6"/>
<path d="M16.6752 14.4711C16.6152 14.4186 16.5586 14.3625 16.5 14.3086C16.4979 14.3141 16.4976 14.3198 16.4954 14.3253L16.6752 14.4711Z" fill="#2F2E41"/>
<path d="M27.2909 2.39681C26.9496 1.84836 26.4768 1.39338 25.9152 1.07293C25.5314 0.887113 25.1281 0.744474 24.7126 0.647637L23.6254 0.351555C23.0683 0.179505 22.4952 0.0643209 21.9148 0.00778003C21.1089 -0.0319025 20.3075 0.150233 19.5983 0.53429C18.889 0.918347 18.2991 1.48956 17.8931 2.18553C17.5646 2.76706 17.3011 3.49171 16.6671 3.70447C16.1559 3.87603 15.5982 3.63404 15.0609 3.68099C14.7461 3.72652 14.4474 3.84886 14.1913 4.03716C13.9352 4.22547 13.7295 4.47392 13.5926 4.76051C13.3249 5.33723 13.1931 5.96752 13.2074 6.60299C13.1863 8.04573 13.4684 9.47687 14.0355 10.8041C14.6027 12.1313 15.4422 13.3251 16.5001 14.3086C16.6774 13.8421 16.3853 13.3384 16.1545 12.8921C15.9209 12.4406 15.7765 11.8111 16.1678 11.4859C16.6031 11.124 17.3006 11.4749 17.8155 11.2389C17.9802 11.1445 18.1189 11.0108 18.2192 10.8498C18.3196 10.6888 18.3784 10.5055 18.3905 10.3163C18.4403 9.94138 18.3883 9.56026 18.4119 9.18276C18.4353 8.80857 18.5327 8.4427 18.6985 8.10629C18.8643 7.76988 19.0953 7.46959 19.378 7.22276C19.6608 6.97593 19.9897 6.78746 20.3458 6.66822C20.7019 6.54899 21.0782 6.50135 21.4529 6.52807C22.6248 6.61162 23.7621 7.41091 24.8899 7.08209C25.4193 6.92774 25.8708 6.53475 26.4183 6.46865C27.0246 6.39543 27.5951 6.73699 28.1099 7.06495C28.297 6.27203 28.3209 5.44945 28.1801 4.64705C28.0393 3.84464 27.7368 3.0791 27.2909 2.39681Z" fill="#2F2E41"/>
<path d="M51.1078 129.043L49.3596 126.239L49.0104 127.841C48.9492 128.122 48.888 128.407 48.8313 128.69C48.3347 128.267 47.8064 127.875 47.2895 127.499C45.7023 126.35 44.1158 125.199 42.5301 124.046L43.0266 126.92C43.3328 128.69 43.6525 130.496 44.4098 132.114C44.4937 132.297 44.5844 132.478 44.6819 132.655H52.0602C52.1195 132.491 52.1606 132.321 52.1826 132.148C52.1845 132.137 52.1852 132.125 52.1848 132.114C52.3005 131.016 51.6928 129.982 51.1078 129.043Z" fill="#F0F0F0"/>
<path d="M179.01 126.015L175.839 120.928L175.205 123.835C175.094 124.344 174.983 124.861 174.88 125.374C173.98 124.607 173.021 123.896 172.084 123.215C169.205 121.13 166.327 119.042 163.451 116.951L164.352 122.164C164.907 125.374 165.487 128.65 166.86 131.585C167.013 131.918 167.177 132.246 167.354 132.566H180.737C180.845 132.269 180.919 131.961 180.959 131.647C180.963 131.626 180.964 131.606 180.963 131.585C181.173 129.594 180.071 127.718 179.01 126.015Z" fill="#F0F0F0"/>
<path d="M187.73 132.931L0.269931 133C0.198464 133 0.129996 132.971 0.0795335 132.921C0.0290713 132.87 0.000732422 132.802 0.000732422 132.731C0.000732422 132.659 0.0290713 132.591 0.0795335 132.54C0.129996 132.49 0.198464 132.461 0.269931 132.461L187.73 132.392C187.801 132.392 187.87 132.42 187.92 132.471C187.971 132.521 187.999 132.59 187.999 132.661C187.999 132.732 187.971 132.801 187.92 132.851C187.87 132.902 187.801 132.93 187.73 132.931Z" fill="#CACACA"/>
<path d="M58.8168 53.9305V118.888C58.8174 119.716 59.1472 120.51 59.7336 121.095C60.3201 121.681 61.1153 122.01 61.9446 122.01H158.388C159.217 122.01 160.012 121.681 160.599 121.095C161.185 120.51 161.515 119.716 161.516 118.888V53.9305C161.514 53.1035 161.183 52.3109 160.597 51.7264C160.011 51.1419 159.216 50.8131 158.388 50.812H61.9446C61.116 50.8131 60.3215 51.1419 59.7353 51.7264C59.149 52.3109 58.8187 53.1035 58.8168 53.9305Z" fill="#3F3D56"/>
<path d="M61.0792 54.7384V118.087C61.08 118.529 61.2564 118.953 61.5697 119.266C61.883 119.578 62.3078 119.754 62.7509 119.755H157.585C158.028 119.754 158.453 119.578 158.766 119.266C159.079 118.953 159.256 118.529 159.256 118.087V54.7384C159.256 54.2956 159.08 53.8708 158.767 53.5574C158.454 53.2439 158.028 53.0674 157.585 53.0664H62.7509C62.3072 53.0674 61.8821 53.2439 61.5687 53.5574C61.2553 53.8708 61.0793 54.2956 61.0792 54.7384Z" fill="white"/>
<path d="M56.7997 131.557C56.9764 131.778 57.201 131.956 57.4566 132.078C57.7122 132.2 57.9922 132.263 58.2755 132.261H161.543C161.826 132.261 162.104 132.198 162.359 132.077C162.614 131.955 162.839 131.779 163.017 131.56C163.195 131.341 163.321 131.085 163.388 130.811C163.454 130.537 163.459 130.252 163.401 129.976L161.798 122.376C161.731 122.066 161.588 121.778 161.382 121.537C161.175 121.296 160.911 121.111 160.615 120.998C160.4 120.914 160.171 120.871 159.94 120.871H59.8722C59.6415 120.871 59.4127 120.914 59.1979 120.998C58.9012 121.111 58.6375 121.296 58.4309 121.537C58.2242 121.778 58.0812 122.066 58.0148 122.376L56.4117 129.976C56.3547 130.252 56.3599 130.537 56.427 130.81C56.4942 131.083 56.6215 131.339 56.7997 131.557Z" fill="#2F2E41"/>
<path d="M156.137 124.145H159.096C159.157 124.145 159.207 124.095 159.207 124.034V122.35C159.207 122.289 159.157 122.24 159.096 122.24H156.137C156.076 122.24 156.026 122.289 156.026 122.35V124.034C156.026 124.095 156.076 124.145 156.137 124.145Z" fill="#3F3D56"/>
<path d="M149.776 124.145H152.735C152.796 124.145 152.846 124.095 152.846 124.034V122.35C152.846 122.289 152.796 122.24 152.735 122.24H149.776C149.715 122.24 149.665 122.289 149.665 122.35V124.034C149.665 124.095 149.715 124.145 149.776 124.145Z" fill="#3F3D56"/>
<path d="M143.415 124.145H146.374C146.435 124.145 146.484 124.095 146.484 124.034V122.35C146.484 122.289 146.435 122.24 146.374 122.24H143.415C143.353 122.24 143.304 122.289 143.304 122.35V124.034C143.304 124.095 143.353 124.145 143.415 124.145Z" fill="#3F3D56"/>
<path d="M137.053 124.145H140.013C140.074 124.145 140.123 124.095 140.123 124.034V122.35C140.123 122.289 140.074 122.24 140.013 122.24H137.053C136.992 122.24 136.943 122.289 136.943 122.35V124.034C136.943 124.095 136.992 124.145 137.053 124.145Z" fill="#3F3D56"/>
<path d="M130.692 124.145H133.651C133.712 124.145 133.762 124.095 133.762 124.034V122.35C133.762 122.289 133.712 122.24 133.651 122.24H130.692C130.631 122.24 130.581 122.289 130.581 122.35V124.034C130.581 124.095 130.631 124.145 130.692 124.145Z" fill="#3F3D56"/>
<path d="M124.331 124.145H127.29C127.351 124.145 127.401 124.095 127.401 124.034V122.35C127.401 122.289 127.351 122.24 127.29 122.24H124.331C124.27 122.24 124.22 122.289 124.22 122.35V124.034C124.22 124.095 124.27 124.145 124.331 124.145Z" fill="#3F3D56"/>
<path d="M117.97 124.145H120.929C120.99 124.145 121.04 124.095 121.04 124.034V122.35C121.04 122.289 120.99 122.24 120.929 122.24H117.97C117.909 122.24 117.859 122.289 117.859 122.35V124.034C117.859 124.095 117.909 124.145 117.97 124.145Z" fill="#3F3D56"/>
<path d="M111.608 124.145H114.568C114.629 124.145 114.678 124.095 114.678 124.034V122.35C114.678 122.289 114.629 122.24 114.568 122.24H111.608C111.547 122.24 111.498 122.289 111.498 122.35V124.034C111.498 124.095 111.547 124.145 111.608 124.145Z" fill="#3F3D56"/>
<path d="M105.247 124.145H108.207C108.268 124.145 108.317 124.095 108.317 124.034V122.35C108.317 122.289 108.268 122.24 108.207 122.24H105.247C105.186 122.24 105.137 122.289 105.137 122.35V124.034C105.137 124.095 105.186 124.145 105.247 124.145Z" fill="#3F3D56"/>
<path d="M98.8861 124.145H101.845C101.906 124.145 101.956 124.095 101.956 124.034V122.35C101.956 122.289 101.906 122.24 101.845 122.24H98.8861C98.825 122.24 98.7754 122.289 98.7754 122.35V124.034C98.7754 124.095 98.825 124.145 98.8861 124.145Z" fill="#3F3D56"/>
<path d="M92.5249 124.145H95.4841C95.5453 124.145 95.5948 124.095 95.5948 124.034V122.35C95.5948 122.289 95.5453 122.24 95.4841 122.24H92.5249C92.4638 122.24 92.4142 122.289 92.4142 122.35V124.034C92.4142 124.095 92.4638 124.145 92.5249 124.145Z" fill="#3F3D56"/>
<path d="M86.1637 124.145H89.1229C89.1841 124.145 89.2336 124.095 89.2336 124.034V122.35C89.2336 122.289 89.1841 122.24 89.1229 122.24H86.1637C86.1026 122.24 86.053 122.289 86.053 122.35V124.034C86.053 124.095 86.1026 124.145 86.1637 124.145Z" fill="#3F3D56"/>
<path d="M79.8025 124.145H82.7617C82.8229 124.145 82.8724 124.095 82.8724 124.034V122.35C82.8724 122.289 82.8229 122.24 82.7617 122.24H79.8025C79.7414 122.24 79.6918 122.289 79.6918 122.35V124.034C79.6918 124.095 79.7414 124.145 79.8025 124.145Z" fill="#3F3D56"/>
<path d="M73.4413 124.145H76.4005C76.4616 124.145 76.5112 124.095 76.5112 124.034V122.35C76.5112 122.289 76.4616 122.24 76.4005 122.24H73.4413C73.3801 122.24 73.3306 122.289 73.3306 122.35V124.034C73.3306 124.095 73.3801 124.145 73.4413 124.145Z" fill="#3F3D56"/>
<path d="M67.0801 124.145H70.0393C70.1005 124.145 70.15 124.095 70.15 124.034V122.35C70.15 122.289 70.1005 122.24 70.0393 122.24H67.0801C67.019 122.24 66.9694 122.289 66.9694 122.35V124.034C66.9694 124.095 67.019 124.145 67.0801 124.145Z" fill="#3F3D56"/>
<path d="M60.7189 124.145H63.6781C63.7393 124.145 63.7888 124.095 63.7888 124.034V122.35C63.7888 122.289 63.7393 122.24 63.6781 122.24H60.7189C60.6578 122.24 60.6082 122.289 60.6082 122.35V124.034C60.6082 124.095 60.6578 124.145 60.7189 124.145Z" fill="#3F3D56"/>
<path d="M156.212 127.319H159.171C159.232 127.319 159.282 127.269 159.282 127.208V125.525C159.282 125.464 159.232 125.414 159.171 125.414H156.212C156.151 125.414 156.101 125.464 156.101 125.525V127.208C156.101 127.269 156.151 127.319 156.212 127.319Z" fill="#3F3D56"/>
<path d="M149.851 127.319H152.81C152.871 127.319 152.921 127.269 152.921 127.208V125.525C152.921 125.464 152.871 125.414 152.81 125.414H149.851C149.79 125.414 149.74 125.464 149.74 125.525V127.208C149.74 127.269 149.79 127.319 149.851 127.319Z" fill="#3F3D56"/>
<path d="M143.49 127.319H146.449C146.51 127.319 146.56 127.269 146.56 127.208V125.525C146.56 125.464 146.51 125.414 146.449 125.414H143.49C143.429 125.414 143.379 125.464 143.379 125.525V127.208C143.379 127.269 143.429 127.319 143.49 127.319Z" fill="#3F3D56"/>
<path d="M137.128 127.319H140.088C140.149 127.319 140.198 127.269 140.198 127.208V125.525C140.198 125.464 140.149 125.414 140.088 125.414H137.128C137.067 125.414 137.018 125.464 137.018 125.525V127.208C137.018 127.269 137.067 127.319 137.128 127.319Z" fill="#3F3D56"/>
<path d="M130.767 127.319H133.726C133.788 127.319 133.837 127.269 133.837 127.208V125.525C133.837 125.464 133.788 125.414 133.726 125.414H130.767C130.706 125.414 130.657 125.464 130.657 125.525V127.208C130.657 127.269 130.706 127.319 130.767 127.319Z" fill="#3F3D56"/>
<path d="M124.406 127.319H127.365C127.426 127.319 127.476 127.269 127.476 127.208V125.525C127.476 125.464 127.426 125.414 127.365 125.414H124.406C124.345 125.414 124.295 125.464 124.295 125.525V127.208C124.295 127.269 124.345 127.319 124.406 127.319Z" fill="#3F3D56"/>
<path d="M118.045 127.319H121.004C121.065 127.319 121.115 127.269 121.115 127.208V125.525C121.115 125.464 121.065 125.414 121.004 125.414H118.045C117.984 125.414 117.934 125.464 117.934 125.525V127.208C117.934 127.269 117.984 127.319 118.045 127.319Z" fill="#3F3D56"/>
<path d="M111.684 127.319H114.643C114.704 127.319 114.754 127.269 114.754 127.208V125.525C114.754 125.464 114.704 125.414 114.643 125.414H111.684C111.623 125.414 111.573 125.464 111.573 125.525V127.208C111.573 127.269 111.623 127.319 111.684 127.319Z" fill="#3F3D56"/>
<path d="M105.322 127.319H108.282C108.343 127.319 108.392 127.269 108.392 127.208V125.525C108.392 125.464 108.343 125.414 108.282 125.414H105.322C105.261 125.414 105.212 125.464 105.212 125.525V127.208C105.212 127.269 105.261 127.319 105.322 127.319Z" fill="#3F3D56"/>
<path d="M98.9613 127.319H101.92C101.982 127.319 102.031 127.269 102.031 127.208V125.525C102.031 125.464 101.982 125.414 101.92 125.414H98.9613C98.9001 125.414 98.8506 125.464 98.8506 125.525V127.208C98.8506 127.269 98.9001 127.319 98.9613 127.319Z" fill="#3F3D56"/>
<path d="M92.6001 127.319H95.5593C95.6204 127.319 95.67 127.269 95.67 127.208V125.525C95.67 125.464 95.6204 125.414 95.5593 125.414H92.6001C92.5389 125.414 92.4894 125.464 92.4894 125.525V127.208C92.4894 127.269 92.5389 127.319 92.6001 127.319Z" fill="#3F3D56"/>
<path d="M86.2389 127.319H89.1981C89.2592 127.319 89.3088 127.269 89.3088 127.208V125.525C89.3088 125.464 89.2592 125.414 89.1981 125.414H86.2389C86.1777 125.414 86.1282 125.464 86.1282 125.525V127.208C86.1282 127.269 86.1777 127.319 86.2389 127.319Z" fill="#3F3D56"/>
<path d="M79.8776 127.319H82.8369C82.898 127.319 82.9476 127.269 82.9476 127.208V125.525C82.9476 125.464 82.898 125.414 82.8369 125.414H79.8776C79.8165 125.414 79.767 125.464 79.767 125.525V127.208C79.767 127.269 79.8165 127.319 79.8776 127.319Z" fill="#3F3D56"/>
<path d="M73.5165 127.319H76.4757C76.5368 127.319 76.5864 127.269 76.5864 127.208V125.525C76.5864 125.464 76.5368 125.414 76.4757 125.414H73.5165C73.4553 125.414 73.4058 125.464 73.4058 125.525V127.208C73.4058 127.269 73.4553 127.319 73.5165 127.319Z" fill="#3F3D56"/>
<path d="M67.1552 127.319H70.1145C70.1756 127.319 70.2252 127.269 70.2252 127.208V125.525C70.2252 125.464 70.1756 125.414 70.1145 125.414H67.1552C67.0941 125.414 67.0446 125.464 67.0446 125.525V127.208C67.0446 127.269 67.0941 127.319 67.1552 127.319Z" fill="#3F3D56"/>
<path d="M60.7941 127.319H63.7533C63.8144 127.319 63.864 127.269 63.864 127.208V125.525C63.864 125.464 63.8144 125.414 63.7533 125.414H60.7941C60.7329 125.414 60.6834 125.464 60.6834 125.525V127.208C60.6834 127.269 60.7329 127.319 60.7941 127.319Z" fill="#3F3D56"/>
<path d="M96.385 131.128H121.608C121.67 131.128 121.719 131.079 121.719 131.018V129.334C121.719 129.273 121.67 129.224 121.608 129.224H96.385C96.3239 129.224 96.2743 129.273 96.2743 129.334V131.018C96.2743 131.079 96.3239 131.128 96.385 131.128Z" fill="#3F3D56"/>
<path d="M131.772 91.4405C131.761 96.7882 129.747 101.938 126.125 105.879C122.503 109.819 117.535 112.265 112.198 112.735C106.861 113.204 101.541 111.665 97.2834 108.418C93.0262 105.171 90.1398 100.452 89.1917 95.1887C88.2436 89.9255 89.3024 84.4986 92.1599 79.975C95.0173 75.4514 99.4669 72.1583 104.634 70.7431C109.8 69.328 115.311 69.8931 120.081 72.3274C124.852 74.7617 128.537 78.8891 130.413 83.8982C130.46 84.024 130.506 84.1497 130.55 84.2767V84.2779C130.748 84.8362 130.923 85.4048 131.073 85.9838C131.539 87.7655 131.773 89.5993 131.772 91.4405Z" fill="#3F3D56"/>
<path d="M107.804 76.8919C106.833 76.3679 105.755 76.0721 104.652 76.027C103.55 75.982 102.451 76.1889 101.441 76.6321C100.551 77.0185 99.614 77.7119 99.3171 78.9638C100.518 78.2567 102.072 79.374 102.38 81.1663L102.308 81.1861C102.145 82.4275 102.509 83.7791 103.215 84.5489C103.267 84.2016 103.396 83.8702 103.593 83.579C103.79 83.2878 104.049 83.0439 104.352 82.8652C104.87 82.5253 105.443 82.2783 105.839 81.694C106.307 81.0013 106.426 79.989 106.613 79.0654C106.799 78.1419 107.152 77.1493 107.804 76.8919Z" fill="#6C63FF"/>
<path d="M101.085 87.4557C100.752 87.9541 100.308 88.2668 99.9095 88.6561C99.4495 89.0737 99.1477 89.6368 99.055 90.2506C99.0046 90.6842 99.0826 91.1251 99.0718 91.5636C99.061 92.002 98.9145 92.4956 98.6157 92.6046C98.144 92.7747 97.7839 91.9002 97.299 91.8391C96.9138 91.7912 96.5669 92.3961 96.6785 92.9208C96.7901 93.4455 97.3146 93.6779 97.6159 93.3353C97.8884 93.7917 97.6963 94.6196 97.287 94.7597C97.2438 95.0472 97.2006 95.3335 97.1586 95.621C96.124 94.8987 95.0786 94.1643 94.1989 93.1065C93.2204 91.94 92.6135 90.5083 92.4561 88.9951C92.3421 87.7792 92.5113 86.3884 91.952 85.4528C91.5043 84.704 90.7362 84.5387 90.0449 84.5854C89.9188 84.5938 89.7916 84.6082 89.6656 84.6238C90.0733 83.4015 90.5911 82.2187 91.2127 81.0898C91.3533 81.0295 91.484 80.9483 91.6003 80.849C92.2437 80.3039 92.5293 79.2006 93.0514 78.4375C93.085 78.3884 93.1198 78.3404 93.1559 78.2937C93.69 77.5977 94.4053 77.2395 95.0966 76.9065C96.6269 76.1649 98.2016 75.4138 99.8171 75.5168L99.3574 75.5612C98.8209 77.061 98.284 78.5609 97.7467 80.0607C97.6651 80.2907 97.5827 80.5211 97.4995 80.7519C97.1946 81.6049 96.8802 82.5129 96.927 83.4677C96.9546 84.0332 97.1514 84.6369 97.5259 84.831C97.8752 85.0107 98.2568 84.7903 98.5941 84.5722C98.7369 84.4812 98.8785 84.3901 99.0214 84.2979C99.5339 83.9685 100.102 83.6306 100.643 83.8511C101.139 84.0523 101.505 84.7244 101.574 85.4492C101.638 86.1537 101.466 86.8594 101.085 87.4557Z" fill="#6C63FF"/>
<path d="M104.133 97.696C102.636 96.7761 101.139 95.8563 99.6422 94.9364L99.6676 94.8711C98.737 95.2249 98.3506 96.876 98.5044 98.2263C98.6582 99.5766 99.1797 100.784 99.4432 102.099C99.7984 103.9 99.6643 105.762 99.0548 107.494C101.023 105.289 102.765 102.894 104.254 100.343C104.462 100.021 104.621 99.6702 104.725 99.3017C104.834 98.909 104.795 98.4896 104.615 98.124C104.492 97.9435 104.326 97.7964 104.133 97.696Z" fill="#6C63FF"/>
<path d="M98.2252 80.9608C98.0495 81.3375 98.0224 81.7664 98.1494 82.1621C98.2971 82.481 98.565 82.7286 98.8948 82.8512L99.7218 83.2604C99.997 83.3965 100.294 83.534 100.574 83.422C100.912 83.2869 101.147 82.7576 101.086 82.2661C101.022 81.7432 100.691 81.3834 100.386 81.0771C99.9585 80.6484 99.531 80.2197 99.1036 79.791L98.8627 80.0855C98.6021 80.3392 98.3866 80.6351 98.2252 80.9608Z" fill="#6C63FF"/>
<path d="M127.338 86.5512C127.71 86.6387 128.082 86.7261 128.455 86.8136C128.39 88.0678 127.767 89.2287 126.931 89.6491C126.583 89.8241 126.196 89.8887 125.908 90.2158C125.647 90.5129 125.515 90.9753 125.394 91.4173C125.182 92.1888 124.969 92.9603 124.757 93.7318C124.529 94.5632 124.236 95.4868 123.643 95.7863C123.134 96.0438 122.552 95.7288 122.161 95.2005C121.769 94.6722 121.53 93.9618 121.299 93.2694C121.313 94.0241 120.962 94.7644 120.463 95.0268C119.964 95.2891 119.357 95.0519 119.023 94.4662C118.783 94.0457 118.683 93.491 118.448 93.0645C118.213 92.6381 117.72 92.3937 117.463 92.7938C117.294 93.0597 117.315 93.467 117.231 93.8049C117.189 94.0292 117.078 94.2347 116.913 94.3929C116.748 94.5512 116.538 94.6542 116.312 94.6878C116.104 94.683 115.899 94.6361 115.71 94.5498C115.521 94.4635 115.351 94.3396 115.211 94.1858C114.476 93.4354 113.998 92.4723 113.844 91.4341C113.74 90.9364 113.753 90.4213 113.883 89.9295C114.03 89.4635 114.387 89.1041 114.741 89.1927C114.974 88.7015 114.514 88.0499 114.1 88.1074C113.685 88.1649 113.359 88.6093 113.018 88.9507C112.679 89.2921 112.203 89.5401 111.861 89.2011C111.865 89.2656 111.856 89.3302 111.834 89.3909C111.811 89.4516 111.777 89.507 111.732 89.5537C111.687 89.6004 111.633 89.6373 111.574 89.6622C111.514 89.6871 111.45 89.6994 111.385 89.6983C111.157 89.6331 110.946 89.5213 110.764 89.37C109.981 88.8824 108.986 89.2059 108.429 90.1283C108.777 88.65 109.287 86.9537 110.356 86.6063C110.793 86.4638 111.27 86.5812 111.683 86.3344C112.413 85.8971 112.561 84.2451 111.93 83.5635C112.01 84.208 111.995 84.9603 111.654 85.4012C111.313 85.842 110.598 85.5545 110.641 84.9028C110.631 84.9945 110.593 85.0807 110.531 85.1492C110.469 85.2177 110.387 85.2649 110.297 85.284C110.206 85.3032 110.112 85.2933 110.028 85.2558C109.943 85.2183 109.873 85.1551 109.827 85.0753C109.6 84.7303 109.619 84.1661 109.78 83.754C109.946 83.3807 110.184 83.0437 110.48 82.7621C111.05 82.1523 111.629 81.5354 112.289 81.152C112.95 80.7687 113.713 80.6393 114.376 81.0203C114.725 81.2215 115.032 81.5569 115.389 81.7342C115.474 81.7871 115.569 81.8224 115.669 81.8378C115.768 81.8533 115.869 81.8488 115.967 81.8244C116.064 81.8001 116.156 81.7564 116.236 81.6961C116.317 81.6357 116.384 81.5599 116.434 81.4731C116.7 81.0083 116.575 80.3182 116.673 79.7372C116.85 78.7106 117.878 78.2302 118.448 78.9082C118.022 78.7992 117.582 79.3024 117.529 79.9121C117.475 80.5219 117.783 81.1377 118.196 81.3221C118.89 81.6288 119.569 80.8573 120.094 80.1433C120.641 79.3958 121.189 78.6487 121.738 77.902C121.826 77.7748 121.924 77.6554 122.032 77.545C122.204 77.3777 122.433 77.2819 122.673 77.2771C122.913 77.2722 123.146 77.3585 123.325 77.5186C123.879 77.9702 124.14 78.8963 124.595 79.5336C125.255 80.4596 126.243 80.6848 127.162 80.8645C127.847 80.9975 128.533 81.1313 129.219 81.2658C129.676 82.1151 130.075 82.9945 130.413 83.8978C129.155 84.4704 128.088 85.3913 127.338 86.5512Z" fill="#6C63FF"/>
<path d="M131.073 85.9837C130.933 86.3974 130.856 86.83 130.845 87.2667C130.257 86.5503 130.164 85.2074 130.55 84.2778C130.748 84.8361 130.923 85.4047 131.073 85.9837Z" fill="#6C63FF"/>
<path d="M129.554 100.965C129.04 102.008 128.442 103.006 127.766 103.952C127.334 103.768 126.869 104.097 126.465 104.406C126.042 104.729 125.534 105.045 125.101 104.75C124.658 104.448 124.515 103.603 124.656 102.934C124.817 102.316 125.1 101.736 125.486 101.228C125.846 100.691 126.232 100.134 126.732 99.9257C127.234 99.7172 127.878 100.012 128.025 100.724L128.38 100.711C128.181 100.438 128.285 99.8729 128.553 99.7735C128.861 99.6573 129.129 100.08 129.311 100.454C129.393 100.623 129.476 100.793 129.554 100.965Z" fill="#6C63FF"/>
<path d="M115.948 95.905C115.184 95.9529 114.579 95.0147 114.177 94.0916C113.775 93.1685 113.408 92.1129 112.719 91.6431C112.326 91.3746 111.877 91.3378 111.45 91.2077C111.208 91.1466 110.983 91.0288 110.796 90.8641C110.608 90.6993 110.463 90.4923 110.372 90.2602L109.887 90.0649C109.21 90.403 108.589 90.8446 108.048 91.3738C107.43 92.0293 107.045 92.8696 106.952 93.7651C106.86 94.7329 107.201 95.812 107.84 96.1755C108.344 96.4628 108.932 96.2817 109.443 96.5447C110.081 96.8732 110.46 97.8276 110.604 98.77C110.747 99.7124 110.711 100.692 110.813 101.645C110.916 102.598 111.199 103.59 111.785 104.078C112.517 104.689 113.592 104.181 113.921 103.069C114.082 102.523 114.077 101.907 114.197 101.341C114.41 100.343 114.983 99.6029 115.437 98.7846C115.892 97.9662 116.25 96.8547 115.948 95.905Z" fill="#6C63FF"/>
<path d="M108.402 86.1022C108.473 86.1676 108.539 86.2381 108.601 86.3129C108.664 86.4219 108.696 86.5461 108.694 86.672C108.692 86.798 108.655 86.921 108.588 87.0278C108.68 87.0225 108.77 86.9983 108.852 86.9567C108.934 86.915 109.007 86.8568 109.066 86.7857C109.205 86.6273 109.328 86.4549 109.431 86.2713C109.48 86.2085 109.515 86.1359 109.534 86.0586C109.552 85.9812 109.554 85.9008 109.539 85.8226C109.503 85.7199 109.418 85.676 109.358 85.5988C109.275 85.4477 109.219 85.2836 109.191 85.1136C109.158 84.9543 109.081 84.8073 108.968 84.6892C108.856 84.5712 108.713 84.4867 108.555 84.4453L108.594 84.4526C108.529 84.4912 108.477 84.5492 108.447 84.6184C108.416 84.6876 108.408 84.7646 108.424 84.8386C108.447 84.988 108.543 85.1122 108.533 85.2646C108.52 85.4839 108.3 85.5867 108.287 85.806C108.285 85.916 108.326 86.0224 108.402 86.1022Z" fill="#6C63FF"/>
<path d="M107.093 82.3766L107.097 82.3759C107.12 82.3545 107.142 82.3314 107.162 82.3066L107.093 82.3766Z" fill="#6C63FF"/>
<path d="M107.322 83.4055C107.414 83.3252 107.482 83.2213 107.519 83.1051C107.555 82.9889 107.559 82.8649 107.53 82.7466C107.474 82.4973 107.278 82.3297 107.097 82.3758C107.044 82.4289 106.979 82.4679 106.907 82.489C106.835 82.5101 106.76 82.5126 106.687 82.4963C106.575 82.4676 106.452 82.3935 106.355 82.4777C106.299 82.5406 106.26 82.6163 106.241 82.698C106.205 82.8082 106.17 82.9183 106.134 83.0284C106.117 83.0678 106.112 83.1115 106.121 83.1536C106.128 83.1704 106.139 83.1852 106.153 83.1966C106.167 83.2079 106.184 83.2154 106.202 83.2183C106.418 83.2817 106.634 83.3452 106.849 83.4086C106.924 83.4428 107.004 83.4602 107.086 83.4596C107.168 83.4591 107.249 83.4406 107.322 83.4055Z" fill="#6C63FF"/>
<path d="M123.602 97.6133C123.503 97.4504 123.403 97.2875 123.303 97.1246C123.206 96.9359 123.072 96.7681 122.909 96.6307C122.874 96.6008 122.832 96.5784 122.788 96.5648C122.743 96.5511 122.697 96.5464 122.65 96.5511C122.604 96.5557 122.559 96.5695 122.518 96.5917C122.477 96.6139 122.441 96.6441 122.412 96.6804L122.424 96.7734C122.691 97.0591 122.873 97.4133 122.95 97.7963C122.972 97.9628 122.964 98.1351 122.984 98.3023C122.986 98.3798 123.004 98.4562 123.036 98.527C123.067 98.5978 123.113 98.6617 123.169 98.715C123.326 98.8197 123.51 98.6653 123.622 98.477C123.722 98.3224 123.767 98.1386 123.749 97.9555C123.724 97.8326 123.674 97.7161 123.602 97.6133Z" fill="#6C63FF"/>
<path d="M125.166 97.8251C125.185 97.6726 125.173 97.5178 125.13 97.3703C125.123 97.1707 125.176 96.9735 125.282 96.8043C125.388 96.6446 125.468 96.4695 125.519 96.2853C125.541 96.2013 125.537 96.1128 125.508 96.0311C125.475 95.9571 125.395 95.9234 125.349 95.982L125.447 96.045C125.315 96.0214 125.179 96.028 125.049 96.0643C124.975 96.0925 124.909 96.1381 124.857 96.1972C124.804 96.2563 124.767 96.3272 124.747 96.4038C124.731 96.5232 124.705 96.6411 124.668 96.756C124.61 96.8761 124.496 96.916 124.425 97.0214C124.377 97.1148 124.352 97.2188 124.354 97.324C124.356 97.4293 124.384 97.5324 124.435 97.6242C124.525 97.7743 124.667 97.8858 124.834 97.9371C124.954 97.9801 125.111 97.9823 125.166 97.8251Z" fill="#6C63FF"/>
<path d="M127.951 98.6639C127.994 98.7764 128.052 98.8827 128.124 98.98C128.257 99.114 128.438 99.0316 128.6 98.9991C128.747 98.9759 128.897 98.9929 129.035 99.0481C129.173 99.1033 129.293 99.1947 129.383 99.3127C129.321 99.0004 129.184 98.7078 128.984 98.4593C128.785 98.2108 128.528 98.0138 128.236 97.8847C127.857 97.7537 127.458 97.6914 127.057 97.7006L126.989 97.7181C127.163 98.2252 127.711 98.2138 127.951 98.6639Z" fill="#6C63FF"/>
<path d="M116.156 99.7011L116.157 99.7033L116.177 99.665L116.156 99.7011Z" fill="#6C63FF"/>
<path d="M115.734 100.517C115.642 100.684 115.563 100.858 115.497 101.037C115.41 101.327 115.352 101.625 115.325 101.926C115.304 102.097 115.297 102.316 115.405 102.4C115.435 102.42 115.473 102.429 115.509 102.424C115.546 102.419 115.58 102.401 115.604 102.373C115.664 102.31 115.713 102.237 115.749 102.158C115.96 101.795 116.124 101.406 116.237 101.001C116.355 100.571 116.327 100.115 116.157 99.7031C116.016 99.9744 115.875 100.246 115.734 100.517Z" fill="#6C63FF"/>
<path d="M111.658 78.7724C111.725 78.8379 111.81 78.8823 111.902 78.9003C111.994 78.9182 112.09 78.9089 112.177 78.8734C112.357 78.7949 112.522 78.6862 112.664 78.5519C112.783 78.4645 112.883 78.3552 112.96 78.2299C113.002 78.1551 113.03 78.0726 113.04 77.9873C113.05 77.9019 113.044 77.8154 113.021 77.7326C112.987 77.6532 112.935 77.5836 112.867 77.5303C112.8 77.477 112.72 77.4418 112.635 77.428C112.395 77.3571 112.156 77.2863 111.917 77.2154L112.09 77.0597C111.912 76.9642 111.715 77.1413 111.603 77.3606C111.532 77.5038 111.482 77.6567 111.456 77.8144C111.418 77.9793 111.416 78.1503 111.451 78.3157C111.486 78.4812 111.557 78.637 111.658 78.7724Z" fill="#6C63FF"/>
<path d="M115.884 77.3561C115.952 77.4303 116.045 77.4762 116.145 77.4843C116.245 77.4924 116.345 77.4622 116.423 77.3999C116.491 77.3492 116.547 77.2848 116.588 77.2109C116.629 77.1371 116.654 77.0555 116.662 76.9713C116.679 76.7834 116.585 76.5745 116.452 76.5583L116.483 76.3824C116.227 76.3362 115.912 76.3269 115.774 76.6374C115.728 76.7563 115.714 76.8853 115.733 77.0114C115.752 77.1375 115.805 77.2564 115.884 77.3561Z" fill="#6C63FF"/>
<path d="M154.079 64.5348H66.2563C66.1962 64.5335 66.1389 64.5087 66.0968 64.4657C66.0547 64.4228 66.0311 64.3651 66.0311 64.305C66.0311 64.2449 66.0547 64.1872 66.0968 64.1443C66.1389 64.1013 66.1962 64.0765 66.2563 64.0752H154.079C154.14 64.0765 154.197 64.1013 154.239 64.1443C154.281 64.1872 154.305 64.2449 154.305 64.305C154.305 64.3651 154.281 64.4228 154.239 64.4657C154.197 64.5087 154.14 64.5335 154.079 64.5348Z" fill="#CACACA"/>
<path d="M71.3253 61.3175C72.6934 61.3175 73.8025 60.1859 73.8025 58.7899C73.8025 57.3939 72.6934 56.2622 71.3253 56.2622C69.9571 56.2622 68.848 57.3939 68.848 58.7899C68.848 60.1859 69.9571 61.3175 71.3253 61.3175Z" fill="#3F3D56"/>
<path d="M79.883 61.3175C81.2512 61.3175 82.3603 60.1859 82.3603 58.7899C82.3603 57.3939 81.2512 56.2622 79.883 56.2622C78.5149 56.2622 77.4058 57.3939 77.4058 58.7899C77.4058 60.1859 78.5149 61.3175 79.883 61.3175Z" fill="#3F3D56"/>
<path d="M88.4408 61.3175C89.8089 61.3175 90.918 60.1859 90.918 58.7899C90.918 57.3939 89.8089 56.2622 88.4408 56.2622C87.0726 56.2622 85.9635 57.3939 85.9635 58.7899C85.9635 60.1859 87.0726 61.3175 88.4408 61.3175Z" fill="#3F3D56"/>
<path d="M148.951 56.8887H142.872C142.752 56.8911 142.637 56.9405 142.553 57.0264C142.468 57.1123 142.421 57.2278 142.421 57.3481C142.421 57.4684 142.468 57.5839 142.553 57.6698C142.637 57.7557 142.752 57.8051 142.872 57.8075H148.951C149.072 57.8051 149.186 57.7557 149.271 57.6698C149.355 57.5839 149.402 57.4684 149.402 57.3481C149.402 57.2278 149.355 57.1123 149.271 57.0264C149.186 56.9405 149.072 56.8911 148.951 56.8887Z" fill="#3F3D56"/>
<path d="M148.951 58.6133H142.872C142.752 58.6157 142.637 58.6651 142.553 58.751C142.468 58.8369 142.421 58.9524 142.421 59.0727C142.421 59.193 142.468 59.3085 142.553 59.3944C142.637 59.4803 142.752 59.5297 142.872 59.5321H148.951C149.072 59.5297 149.186 59.4803 149.271 59.3944C149.355 59.3085 149.402 59.193 149.402 59.0727C149.402 58.9524 149.355 58.8369 149.271 58.751C149.186 58.6651 149.072 58.6157 148.951 58.6133Z" fill="#3F3D56"/>
<path d="M148.951 60.3354H142.872C142.752 60.3378 142.637 60.3873 142.553 60.4732C142.468 60.5591 142.421 60.6746 142.421 60.7949C142.421 60.9152 142.468 61.0307 142.553 61.1165C142.637 61.2024 142.752 61.2519 142.872 61.2543H148.951C149.072 61.2519 149.186 61.2024 149.271 61.1165C149.355 61.0307 149.402 60.9152 149.402 60.7949C149.402 60.6746 149.355 60.5591 149.271 60.4732C149.186 60.3873 149.072 60.3378 148.951 60.3354Z" fill="#3F3D56"/>
<g opacity="0.35">
<path opacity="0.35" d="M156.406 92.5029C157.82 91.8877 154.953 91.5296 151.701 91.4119C148.448 91.2941 144.514 91.3006 142.436 90.9658C140.426 90.6419 140.574 90.066 140.405 89.5442C140.236 89.0224 139.463 88.4874 136.326 88.3714C132.418 88.2269 125.972 88.7833 123.022 88.4492C120.268 88.1376 121.905 87.1598 117.89 87.1224C115.597 87.1011 112.644 87.4234 110.093 87.5012C108.285 87.5795 106.473 87.4852 104.683 87.2196C103.439 87.0163 102.573 86.7585 101.174 86.5789C97.4997 86.1074 90.3116 86.2659 83.896 86.8702C77.4804 87.4745 71.981 88.4649 68.8795 89.4458C65.778 90.4268 64.9212 91.3925 65.6436 92.2115C66.105 92.7345 67.2855 93.2235 70.1491 93.4336C75.5054 93.8267 85.0417 93.1501 90.5765 93.5077C93.6613 93.7071 95.0298 94.2012 97.7364 94.4716C100.644 94.7621 104.901 94.7775 109.083 94.7706C117.791 94.7563 126.721 94.667 135.828 94.5032C139.632 94.4348 143.617 94.3459 147.664 94.0199C151.712 93.694 155.84 93.065 156.694 92.4754" fill="white"/>
</g>
</g>
<defs>
<clipPath id="clip0_726_113">
<rect width="188" height="133" fill="white"/>
</clipPath>
</defs>
</svg>
